# xmcd
#
# Track frame offsets: 
#        150
#        24622
#        55591
#        83871
#        112314
#        125993
#        145572
#        175326
#        199635
#        223805
#        246247
#
# Disc length: 3452 seconds
#
# Revision: 0
# Processed by: cddbd v1.5.2PL0 Copyright (c) Steve Scherf et al.
# Submitted via: ExactAudioCopy v0.99pb5
#
DISCID=a50d7a0b
DTITLE=Finch Brian - Hero of Heroes
DYEAR=2001
DGENRE=Country Rock
TTITLE0=Hero of Heroes
TTITLE1=Orang Otang
TTITLE2=I'll Remember You
TTITLE3=Dance
TTITLE4=Tansy
TTITLE5=South Carolina
TTITLE6=So Much Younger
TTITLE7=Tell Me
TTITLE8=Got to be Strong
TTITLE9=Freedom/Motherless Child
TTITLE10=Postively No Bob Dylan
EXTD=
EXTT0=
EXTT1=
EXTT2=
EXTT3=
EXTT4=
EXTT5=
EXTT6=
EXTT7=
EXTT8=
EXTT9=
EXTT10=
PLAYORDER=
